<?xml version="1.0" standalone="no"?>
<!DOCTYPE svg PUBLIC "-//W3C//DTD SVG 20010904//EN"
 "http://www.w3.org/TR/2001/REC-SVG-20010904/DTD/svg10.dtd">
<svg version="1.0" xmlns="http://www.w3.org/2000/svg"
 width="50.000000pt" height="50.000000pt" viewBox="0 0 50.000000 50.000000"
 preserveAspectRatio="xMidYMid meet">
<metadata>
Created by potrace 1.13, written by Peter Selinger 2001-2015
</metadata>
<g transform="translate(0.000000,50.000000) scale(0.100000,-0.100000)"
fill="#000000" stroke="#FFFFFF" stroke-width="10">
<path d="M256 431 c37 -17 74 -53 74 -73 0 -4 -17 4 -37 18 -32 22 -47 25 -94
22 -59 -4 -110 -32 -131 -71 -9 -17 -3 -15 26 11 21 18 48 32 63 32 26 0 26 0
-8 -23 -39 -26 -79 -98 -79 -142 1 -16 7 -43 14 -60 13 -29 13 -28 8 21 -2 29
1 60 7 70 9 16 10 13 11 -19 0 -85 84 -168 168 -166 22 0 19 3 -16 14 -43 13
-82 40 -82 57 0 4 17 -1 37 -12 21 -11 54 -20 73 -20 45 0 119 37 139 70 16
25 16 25 -17 -3 -35 -28 -72 -42 -94 -34 -8 3 -3 9 12 15 81 33 122 137 86
217 l-14 30 5 -42 c3 -23 2 -54 -2 -70 -8 -26 -9 -25 -16 20 -4 27 -19 63 -34
83 -27 35 -91 74 -122 74 -10 0 1 -9 23 -19z"/>
</g>
</svg>
